<?xml version="1.0" encoding="UTF-8"?>
<svg id="Lockups" xmlns="http://www.w3.org/2000/svg" version="1.1" viewBox="0 0 2214.6 168">
  <!-- Generator: Adobe Illustrator 29.0.1, SVG Export Plug-In . SVG Version: 2.1.0 Build 192)  -->
  <defs>
    <style>
      .st0 {
        fill: #fff;
      }
    </style>
  </defs>
  <g>
    <path class="st0" d="M683.4,2.4h94.4v19.5h-71v35.7h67.2v19.3h-67.2v39.2h71v19.7h-94.4V2.4Z"/>
    <path class="st0" d="M845.8,84.3l36.1,51.5h-25.8l-23.4-33.3-23.7,33.3h-24.1l36.1-50.2-34-48.8h25.8l21.2,30.5,21.9-30.5h23.9l-33.9,47.5Z"/>
    <path class="st0" d="M912.8,36.8v13.2c2.9-4.9,6.9-8.7,12-11.4,5-2.7,10.9-4,17.5-4s11.6,1.2,16.8,3.6c5.2,2.4,9.7,5.9,13.5,10.4,3.8,4.5,6.8,10,8.9,16.4,2.1,6.4,3.2,13.5,3.2,21.3s-1.1,15.2-3.2,21.5c-2.1,6.4-5.1,11.8-8.9,16.4-3.8,4.5-8.3,8-13.5,10.4-5.2,2.4-10.8,3.6-16.8,3.6s-12.5-1.4-17.5-4c-5-2.7-9-6.5-12-11.4v45.3h-21.9V36.8h21.9ZM911.9,86.3c0,5.8.6,10.8,1.9,15s3.1,7.8,5.4,10.6c2.3,2.8,5.1,4.9,8.2,6.3,3.1,1.4,6.5,2.1,10,2.1,7.7,0,13.7-3,18-9.1,4.3-6.1,6.4-14.4,6.4-24.9s-2.1-18.7-6.4-24.7c-4.3-6.1-10.3-9.1-18-9.1s-6.9.7-10,2.1c-3.1,1.4-5.9,3.5-8.2,6.3-2.3,2.8-4.1,6.3-5.4,10.6-1.3,4.3-1.9,9.3-1.9,14.9Z"/>
    <path class="st0" d="M1042.6,138.2c-8.1,0-15.2-1.4-21.4-4.2-6.2-2.8-11.3-6.6-15.5-11.4-4.1-4.8-7.2-10.4-9.4-16.7-2.1-6.4-3.2-13.1-3.2-20.2s1.2-14.3,3.5-20.5c2.3-6.2,5.6-11.6,9.8-16.1,4.2-4.5,9.2-8.1,15.1-10.6,5.9-2.5,12.4-3.8,19.7-3.8s14.6,1.5,20.6,4.4c6,2.9,11,7,15.1,12.1,4,5.2,7.1,11.3,9,18.3,2,7.1,2.7,14.8,2.2,23.1h-72.7c.1,3.9.9,7.6,2.3,10.9,1.4,3.4,3.3,6.3,5.6,8.7,2.3,2.5,5.1,4.4,8.2,5.7,3.1,1.4,6.5,2,10.2,2,11.9,0,19.8-4.6,23.7-13.8h21.5c-1.1,3.9-2.8,7.8-5.2,11.7-2.3,3.9-5.3,7.3-8.9,10.3-3.6,3-7.9,5.4-13,7.3-5,1.8-10.8,2.8-17.3,2.8ZM1041.1,51.7c-3.1,0-6.1.5-9.1,1.5-3,1-5.7,2.5-8.1,4.5-2.4,2-4.4,4.6-6,7.7-1.6,3.1-2.5,6.8-2.6,11.1h50.4c-.1-3.8-.9-7.3-2.2-10.4-1.4-3.1-3.1-5.7-5.3-7.8-2.2-2.1-4.8-3.7-7.7-4.9-2.9-1.2-6.1-1.7-9.4-1.7Z"/>
    <path class="st0" d="M1156.3,59.1c-3.7-.4-7.2-.6-10.5-.6s-6.5.4-9.2,1.2c-2.7.8-5,2.1-6.8,4-1.8,1.9-3.3,4.5-4.2,7.8-1,3.3-1.5,7.4-1.5,12.3v51.9h-21.9V36.8h21.5v17.7c2.7-5.5,6.3-9.8,10.9-13,4.6-3.1,9.9-4.8,15.9-4.9.9,0,1.8,0,2.9,0,1,0,2,.2,2.9.3v22.1Z"/>
    <path class="st0" d="M1187.7,2.4v22.1h-21.9V2.4h21.9ZM1187.7,36.8v99h-21.9V36.8h21.9Z"/>
    <path class="st0" d="M1251.2,138.2c-8.1,0-15.2-1.4-21.4-4.2-6.2-2.8-11.3-6.6-15.5-11.4-4.1-4.8-7.2-10.4-9.4-16.7-2.1-6.4-3.2-13.1-3.2-20.2s1.2-14.3,3.5-20.5c2.3-6.2,5.6-11.6,9.8-16.1,4.2-4.5,9.2-8.1,15.1-10.6,5.9-2.5,12.4-3.8,19.7-3.8s14.6,1.5,20.6,4.4c6,2.9,11,7,15.1,12.1,4,5.2,7.1,11.3,9,18.3,2,7.1,2.7,14.8,2.2,23.1h-72.7c.1,3.9.9,7.6,2.3,10.9,1.4,3.4,3.3,6.3,5.6,8.7,2.3,2.5,5.1,4.4,8.2,5.7,3.1,1.4,6.5,2,10.2,2,11.9,0,19.8-4.6,23.7-13.8h21.5c-1.1,3.9-2.8,7.8-5.2,11.7-2.3,3.9-5.3,7.3-8.9,10.3-3.6,3-7.9,5.4-13,7.3-5,1.8-10.8,2.8-17.3,2.8ZM1249.8,51.7c-3.1,0-6.1.5-9.1,1.5-3,1-5.7,2.5-8.1,4.5-2.4,2-4.4,4.6-6,7.7-1.6,3.1-2.5,6.8-2.6,11.1h50.4c-.1-3.8-.9-7.3-2.2-10.4-1.4-3.1-3.1-5.7-5.3-7.8-2.2-2.1-4.8-3.7-7.7-4.9-2.9-1.2-6.1-1.7-9.4-1.7Z"/>
    <path class="st0" d="M1332.8,50.6c2.8-5.2,6.8-9.1,11.9-11.9,5.1-2.8,11.1-4.1,18.1-4.1s11.1.9,15.4,2.8c4.2,1.8,7.7,4.5,10.4,7.9,2.7,3.4,4.7,7.5,6,12.3s1.9,10.1,1.9,16v62.2h-21.9v-56.9c0-3.3-.2-6.6-.6-9.8-.4-3.2-1.2-6-2.5-8.6-1.3-2.5-3.2-4.5-5.7-6-2.5-1.5-5.9-2.2-10-2.2s-7.7.8-10.7,2.3c-2.9,1.5-5.3,3.7-7.2,6.3-1.8,2.7-3.2,6-4,9.8-.8,3.8-1.2,7.9-1.2,12.3v52.6h-21.9V36.8h21.9v13.8Z"/>
    <path class="st0" d="M1457.4,34.6c5.5,0,10.7.9,15.6,2.6,4.9,1.7,9.3,4.1,13.2,7.3,3.9,3.1,7.1,6.9,9.7,11.3,2.6,4.4,4.4,9.4,5.3,14.9h-21.3c-1-5.3-3.4-9.6-7.3-12.9s-9.1-5-15.7-5-6.7.6-9.7,1.9c-3,1.3-5.6,3.3-7.9,6.1-2.3,2.8-4,6.2-5.3,10.4-1.3,4.2-1.9,9.2-1.9,15.1s.6,10.9,1.9,15.2c1.3,4.2,3.1,7.7,5.3,10.5,2.3,2.8,4.9,4.8,7.9,6.1,3,1.3,6.2,1.9,9.7,1.9,5.5,0,10.5-1.3,15-4,4.5-2.7,7.4-7.4,8.7-14h21.3c-1.1,5.8-3.1,10.9-5.9,15.5-2.8,4.5-6.3,8.3-10.3,11.4-4,3.1-8.6,5.4-13.6,7-5,1.6-10.2,2.4-15.6,2.4s-14-1.3-19.8-4c-5.8-2.6-10.8-6.3-14.8-10.9-4-4.6-7.1-10.1-9.3-16.4-2.1-6.3-3.2-13.2-3.2-20.5s1.1-14.2,3.2-20.5c2.1-6.3,5.3-11.8,9.5-16.5,4.2-4.7,9.2-8.3,15.1-10.9,5.9-2.6,12.6-4,20.2-4Z"/>
    <path class="st0" d="M1558.7,138.2c-8.1,0-15.2-1.4-21.4-4.2-6.2-2.8-11.3-6.6-15.5-11.4-4.1-4.8-7.2-10.4-9.4-16.7-2.1-6.4-3.2-13.1-3.2-20.2s1.2-14.3,3.5-20.5c2.3-6.2,5.6-11.6,9.8-16.1,4.2-4.5,9.2-8.1,15.1-10.6,5.9-2.5,12.4-3.8,19.7-3.8s14.6,1.5,20.6,4.4c6,2.9,11,7,15.1,12.1,4,5.2,7.1,11.3,9,18.3,2,7.1,2.7,14.8,2.2,23.1h-72.7c.1,3.9.9,7.6,2.3,10.9,1.4,3.4,3.3,6.3,5.6,8.7,2.3,2.5,5.1,4.4,8.2,5.7,3.1,1.4,6.5,2,10.2,2,11.9,0,19.8-4.6,23.7-13.8h21.5c-1.1,3.9-2.8,7.8-5.2,11.7-2.3,3.9-5.3,7.3-8.9,10.3-3.6,3-7.9,5.4-13,7.3-5,1.8-10.8,2.8-17.3,2.8ZM1557.2,51.7c-3.1,0-6.1.5-9.1,1.5-3,1-5.7,2.5-8.1,4.5-2.4,2-4.4,4.6-6,7.7-1.6,3.1-2.5,6.8-2.6,11.1h50.4c-.1-3.8-.9-7.3-2.2-10.4-1.4-3.1-3.1-5.7-5.3-7.8-2.2-2.1-4.8-3.7-7.7-4.9-2.9-1.2-6.1-1.7-9.4-1.7Z"/>
    <path class="st0" d="M1779.7,91.4c-2.8,15-9.3,26.5-19.3,34.6-10.1,8.1-22.8,12.1-38.3,12.1s-18.5-1.7-26.1-5c-7.6-3.3-14-8-19.3-14.1-5.3-6.1-9.3-13.4-12.1-22-2.8-8.6-4.1-18.1-4.1-28.5s1.4-19.9,4.3-28.3c2.9-8.5,7.1-15.7,12.5-21.7,5.5-6,12.1-10.6,19.8-13.8,7.7-3.2,16.4-4.8,26.1-4.8,14.8,0,27.2,4,37.2,12.1,9.9,8.1,16.3,19.6,19,34.6h-22.4c-2.1-9.1-6.2-15.9-12.2-20.6-6.1-4.7-13.5-7-22.2-7s-10.2,1.1-14.8,3.2c-4.6,2.1-8.6,5.3-12.1,9.5-3.4,4.2-6.1,9.3-8.1,15.5-2,6.1-2.9,13.2-2.9,21.3s.9,15.3,2.9,21.5c1.9,6.3,4.6,11.5,8,15.8,3.4,4.3,7.4,7.5,12,9.8,4.5,2.2,9.5,3.3,14.9,3.3,9.1,0,16.7-2.3,22.7-6.9,6.1-4.6,10.1-11.5,12.2-20.7h22.4Z"/>
    <path class="st0" d="M1839,138.2c-8.1,0-15.2-1.4-21.4-4.2-6.2-2.8-11.3-6.6-15.5-11.4-4.1-4.8-7.2-10.4-9.4-16.7-2.1-6.4-3.2-13.1-3.2-20.2s1.2-14.3,3.5-20.5c2.3-6.2,5.6-11.6,9.8-16.1,4.2-4.5,9.2-8.1,15.1-10.6,5.9-2.5,12.4-3.8,19.7-3.8s14.6,1.5,20.6,4.4c6,2.9,11,7,15.1,12.1,4,5.2,7.1,11.3,9,18.3,2,7.1,2.7,14.8,2.2,23.1h-72.7c.1,3.9.9,7.6,2.3,10.9,1.4,3.4,3.3,6.3,5.6,8.7,2.3,2.5,5.1,4.4,8.2,5.7,3.1,1.4,6.5,2,10.2,2,11.9,0,19.8-4.6,23.7-13.8h21.5c-1.1,3.9-2.8,7.8-5.2,11.7-2.3,3.9-5.3,7.3-8.9,10.3-3.6,3-7.9,5.4-13,7.3-5,1.8-10.8,2.8-17.3,2.8ZM1837.5,51.7c-3.1,0-6.1.5-9.1,1.5-3,1-5.7,2.5-8.1,4.5-2.4,2-4.4,4.6-6,7.7-1.6,3.1-2.5,6.8-2.6,11.1h50.4c-.1-3.8-.9-7.3-2.2-10.4-1.4-3.1-3.1-5.7-5.3-7.8-2.2-2.1-4.8-3.7-7.7-4.9-2.9-1.2-6.1-1.7-9.4-1.7Z"/>
    <path class="st0" d="M1920.5,50.6c2.8-5.2,6.8-9.1,11.9-11.9,5.1-2.8,11.1-4.1,18.1-4.1s11.1.9,15.4,2.8c4.2,1.8,7.7,4.5,10.4,7.9,2.7,3.4,4.7,7.5,6,12.3s1.9,10.1,1.9,16v62.2h-21.9v-56.9c0-3.3-.2-6.6-.6-9.8-.4-3.2-1.2-6-2.5-8.6-1.3-2.5-3.2-4.5-5.7-6-2.5-1.5-5.9-2.2-10-2.2s-7.7.8-10.7,2.3c-2.9,1.5-5.3,3.7-7.2,6.3-1.8,2.7-3.2,6-4,9.8-.8,3.8-1.2,7.9-1.2,12.3v52.6h-21.9V36.8h21.9v13.8Z"/>
    <path class="st0" d="M2005.6,10.7h21.9v26.1h19.9v15.8h-19.9v53.9c0,5,.8,8.4,2.4,10,1.6,1.7,4.7,2.5,9.4,2.5h7.9v16.7h-16.2c-5.3,0-9.6-.4-12.9-1.2-3.3-.8-5.9-2.2-7.7-4.1-1.8-2-3.1-4.6-3.8-8-.7-3.4-1-7.6-1-12.6v-57.2h-14.7v-15.8h14.7V10.7Z"/>
    <path class="st0" d="M2100.9,138.2c-8.1,0-15.2-1.4-21.4-4.2-6.2-2.8-11.3-6.6-15.5-11.4-4.1-4.8-7.2-10.4-9.4-16.7-2.1-6.4-3.2-13.1-3.2-20.2s1.2-14.3,3.5-20.5c2.3-6.2,5.6-11.6,9.8-16.1,4.2-4.5,9.2-8.1,15.1-10.6,5.9-2.5,12.4-3.8,19.7-3.8s14.6,1.5,20.6,4.4c6,2.9,11,7,15.1,12.1,4,5.2,7.1,11.3,9,18.3,2,7.1,2.7,14.8,2.2,23.1h-72.7c.1,3.9.9,7.6,2.3,10.9,1.4,3.4,3.3,6.3,5.6,8.7,2.3,2.5,5.1,4.4,8.2,5.7,3.1,1.4,6.5,2,10.2,2,11.9,0,19.8-4.6,23.7-13.8h21.5c-1.1,3.9-2.8,7.8-5.2,11.7-2.3,3.9-5.3,7.3-8.9,10.3-3.6,3-7.9,5.4-13,7.3-5,1.8-10.8,2.8-17.3,2.8ZM2099.4,51.7c-3.1,0-6.1.5-9.1,1.5-3,1-5.7,2.5-8.1,4.5-2.4,2-4.4,4.6-6,7.7-1.6,3.1-2.5,6.8-2.6,11.1h50.4c-.1-3.8-.9-7.3-2.2-10.4-1.4-3.1-3.1-5.7-5.3-7.8-2.2-2.1-4.8-3.7-7.7-4.9-2.9-1.2-6.1-1.7-9.4-1.7Z"/>
    <path class="st0" d="M2214.6,59.1c-3.7-.4-7.2-.6-10.5-.6s-6.5.4-9.2,1.2c-2.7.8-5,2.1-6.8,4-1.8,1.9-3.3,4.5-4.2,7.8-1,3.3-1.5,7.4-1.5,12.3v51.9h-21.9V36.8h21.5v17.7c2.7-5.5,6.3-9.8,10.9-13,4.6-3.1,9.9-4.8,15.9-4.9.9,0,1.8,0,2.9,0,1,0,2,.2,2.9.3v22.1Z"/>
  </g>
  <path id="logo_ZM_wordmark" class="st0" d="M126.7,135.8H18.7c-7.6,0-14.3-4.5-17.2-11.5s-1.3-15,4-20.4L80.3,29.1H26.7C11.9,29.1,0,17.1,0,2.4h99.6c7.6,0,14.3,4.5,17.2,11.5,2.9,7,1.3,15-4,20.4L38,109.1h62c14.7,0,26.7,11.9,26.7,26.7h0ZM604,52.4c0-28.7-23.3-52-52-52s-29.1,6.7-38.7,17.3C503.8,7.1,490,.4,474.7.4c-28.7,0-52,23.3-52,52v83.4c14.7,0,26.7-11.9,26.7-26.7v-56.7c0-14,11.4-25.3,25.3-25.3s25.3,11.4,25.3,25.3v56.7c0,14.7,11.9,26.7,26.7,26.7V52.4c0-14,11.4-25.3,25.3-25.3s25.3,11.4,25.3,25.3v56.7c0,14.7,11.9,26.7,26.7,26.7V52.4h0ZM409.3,69.1c0,37.9-30.7,68.7-68.7,68.7s-68.7-30.8-68.7-68.7S302.8.4,340.7.4s68.7,30.8,68.7,68.7h0ZM382.7,69.1c0-23.2-18.8-42-42-42s-42,18.8-42,42,18.8,42,42,42,42-18.8,42-42h0ZM261.3,69.1c0,37.9-30.7,68.7-68.7,68.7s-68.7-30.8-68.7-68.7S154.7.4,192.7.4s68.7,30.8,68.7,68.7h0ZM234.7,69.1c0-23.2-18.8-42-42-42s-42,18.8-42,42,18.8,42,42,42,42-18.8,42-42h0Z"/>
</svg>