<svg width="483" height="66" viewBox="0 0 483 66" fill="none" xmlns="http://www.w3.org/2000/svg">
<path d="M21.2344 65.8594C16.6094 65.8594 12.2812 64.8438 8.25 62.8125C4.25 60.75 1.5625 57.4062 0.1875 52.7812C0.0625 52.4062 0 52.125 0 51.9375C0 50.2188 1.57812 49.3594 4.73438 49.3594C7.51562 49.3594 9.09375 50.0938 9.46875 51.5625C11.0938 57.625 15 60.6562 21.1875 60.6562C23.7812 60.6562 26.3125 59.875 28.7812 58.3125C31.2812 56.7188 32.5312 54.4531 32.5312 51.5156C32.5312 49.6719 31.1719 48.1562 28.4531 46.9688C26.6094 46.1562 24.1875 45.5469 21.1875 45.1406C18.6875 44.7969 16.2344 44.4062 13.8281 43.9688C11.4531 43.5312 9.1875 42.5938 7.03125 41.1562C3.125 38.5625 1.17188 35.2188 1.17188 31.125C1.17188 26.3125 3.53125 22.9062 8.25 20.9062C13 18.875 17.3594 17.8594 21.3281 17.8594C25.3906 17.8594 29.3281 18.7656 33.1406 20.5781C36.9844 22.3906 39.4688 25.375 40.5938 29.5312C40.6875 29.8125 40.7344 30.0781 40.7344 30.3281C40.7344 31.9219 39.1562 32.7656 36 32.8594C33.2188 32.8594 31.6406 32.1094 31.2656 30.6094C30.0469 25.5781 26.7188 23.0625 21.2812 23.0625C18.9375 23.0625 16.5781 23.7188 14.2031 25.0312C11.8281 26.3125 10.6406 28.3125 10.6406 31.0312C10.6406 32.8438 12.1406 34.3438 15.1406 35.5312C17.1719 36.3125 19.5938 36.9219 22.4062 37.3594C24.9062 37.7344 27.2969 38.1562 29.5781 38.625C31.8594 39.0625 34.0781 39.9688 36.2344 41.3438C40.0781 43.7812 42 47.0781 42 51.2344C42 56.4219 39.6094 60.1562 34.8281 62.4375C30.0469 64.7188 25.5156 65.8594 21.2344 65.8594ZM71.9531 65.8594C64.8594 65.8594 58.875 63.75 54 59.5312C49.125 55.2812 46.6875 49.4844 46.6875 42.1406C46.6875 34.6719 49.1562 28.7656 54.0938 24.4219C59.0625 20.0469 65.1562 17.8594 72.375 17.8594C79.25 17.8594 85.1719 19.6719 90.1406 23.2969C95.1094 26.8906 97.5938 32.2812 97.5938 39.4688C97.5938 41.4688 96.0156 42.4688 92.8594 42.4688H56.1562C56.2188 47.0938 57.625 51.2812 60.375 55.0312C63.125 58.7812 67 60.6562 72 60.6562C75.5938 60.6562 78.9219 59.6875 81.9844 57.75C85.2031 55.6875 86.9531 53.25 87.2344 50.4375C87.3906 48.8125 88.9375 48 91.875 48C95.0938 48 96.7031 48.8594 96.7031 50.5781C96.7031 51.4531 96.4375 52.5156 95.9062 53.7656C94.75 56.5156 92.5469 58.9531 89.2969 61.0781C84.4219 64.2656 78.6406 65.8594 71.9531 65.8594ZM87.9844 37.2656C86.9844 27.7969 81.7812 23.0625 72.375 23.0625C64 23.0625 58.7812 27.7969 56.7188 37.2656H87.9844ZM144.844 65.8594C141.688 65.8594 140.109 64.9844 140.109 63.2344V38.9531C140.109 35.2969 139.109 31.75 137.109 28.3125C135.109 24.875 131.953 23.1562 127.641 23.1562C123.016 23.1562 119.609 25.0312 117.422 28.7812C115.234 32.5 114.141 36.3125 114.141 40.2188V63.2344C114.141 64.9844 112.562 65.8594 109.406 65.8594C106.219 65.8594 104.625 64.9844 104.625 63.2344V20.5312C104.625 18.7812 106.219 17.9062 109.406 17.9062C112.562 17.9062 114.141 18.7812 114.141 20.5312V23.3438C117.578 19.6875 122.266 17.8594 128.203 17.8594C134.453 17.8594 139.578 19.8594 143.578 23.8594C147.609 27.8281 149.625 32.8438 149.625 38.9062V63.2344C149.625 64.9844 148.031 65.8594 144.844 65.8594ZM177.379 65.8594C166.848 65.7969 161.582 61.4844 161.582 52.9219V23.1094H156.332C153.176 23.1094 151.598 22.2344 151.598 20.4844C151.598 18.7344 153.176 17.8594 156.332 17.8594H161.582V2.625C161.582 0.875 163.176 0 166.363 0C169.551 0 171.144 0.875 171.144 2.625V17.8594H179.019C182.207 17.8594 183.801 18.7344 183.801 20.4844C183.801 22.2344 182.207 23.1094 179.019 23.1094H171.144V52.9219C171.144 58.0469 173.238 60.6094 177.426 60.6094C178.301 60.6094 179.129 60.5312 179.91 60.375C180.723 60.1875 181.535 60.0938 182.348 60.0938C185.629 60.0938 187.269 61 187.269 62.8125C187.269 64.0312 185.957 64.875 183.332 65.3438C181.269 65.6875 179.285 65.8594 177.379 65.8594ZM196.785 13.7344C193.566 13.7344 191.957 12.1406 191.957 8.95312C191.957 5.73437 193.566 4.125 196.785 4.125C199.973 4.125 201.566 5.73437 201.566 8.95312C201.566 12.1406 199.973 13.7344 196.785 13.7344ZM196.785 65.8594C193.598 65.8594 192.004 64.9844 192.004 63.2344V20.4844C192.004 18.7344 193.598 17.8594 196.785 17.8594C199.941 17.8594 201.519 18.7344 201.519 20.4844V63.2344C201.519 64.9844 199.941 65.8594 196.785 65.8594ZM278.394 65.8594C275.238 65.8594 273.66 64.9844 273.66 63.2344V38.8594C273.66 35.3281 272.863 31.8438 271.269 28.4062C269.676 24.9375 266.723 23.2031 262.41 23.2031C258.129 23.2031 255.207 24.9531 253.644 28.4531C252.082 31.9219 251.301 35.375 251.301 38.8125V63.2344C251.301 64.9844 249.707 65.8594 246.519 65.8594C243.363 65.8594 241.785 64.9844 241.785 63.2344V38.8594C241.785 35.3281 240.988 31.8438 239.394 28.4062C237.801 24.9375 234.832 23.2031 230.488 23.2031C226.769 23.2031 223.926 24.8125 221.957 28.0312C220.207 30.9062 219.332 34.5 219.332 38.8125V63.2344C219.332 64.9844 217.754 65.8594 214.598 65.8594C211.41 65.8594 209.816 64.9844 209.816 63.2344V20.4844C209.816 18.7344 211.41 17.8594 214.598 17.8594C217.754 17.8594 219.332 18.7344 219.332 20.4844V23.3438C222.394 19.6875 226.473 17.8594 231.566 17.8594C237.66 17.8594 242.644 20.1562 246.519 24.75C250.332 20.1562 255.644 17.8594 262.457 17.8594C276.269 17.8594 283.176 24.8594 283.176 38.8594V63.2344C283.176 64.9844 281.582 65.8594 278.394 65.8594ZM315.519 65.8594C308.426 65.8594 302.441 63.75 297.566 59.5312C292.691 55.2812 290.254 49.4844 290.254 42.1406C290.254 34.6719 292.723 28.7656 297.66 24.4219C302.629 20.0469 308.723 17.8594 315.941 17.8594C322.816 17.8594 328.738 19.6719 333.707 23.2969C338.676 26.8906 341.16 32.2812 341.16 39.4688C341.16 41.4688 339.582 42.4688 336.426 42.4688H299.723C299.785 47.0938 301.191 51.2812 303.941 55.0312C306.691 58.7812 310.566 60.6562 315.566 60.6562C319.16 60.6562 322.488 59.6875 325.551 57.75C328.769 55.6875 330.519 53.25 330.801 50.4375C330.957 48.8125 332.504 48 335.441 48C338.66 48 340.269 48.8594 340.269 50.5781C340.269 51.4531 340.004 52.5156 339.473 53.7656C338.316 56.5156 336.113 58.9531 332.863 61.0781C327.988 64.2656 322.207 65.8594 315.519 65.8594ZM331.551 37.2656C330.551 27.7969 325.348 23.0625 315.941 23.0625C307.566 23.0625 302.348 27.7969 300.285 37.2656H331.551ZM388.41 65.8594C385.254 65.8594 383.676 64.9844 383.676 63.2344V38.9531C383.676 35.2969 382.676 31.75 380.676 28.3125C378.676 24.875 375.519 23.1562 371.207 23.1562C366.582 23.1562 363.176 25.0312 360.988 28.7812C358.801 32.5 357.707 36.3125 357.707 40.2188V63.2344C357.707 64.9844 356.129 65.8594 352.973 65.8594C349.785 65.8594 348.191 64.9844 348.191 63.2344V20.5312C348.191 18.7812 349.785 17.9062 352.973 17.9062C356.129 17.9062 357.707 18.7812 357.707 20.5312V23.3438C361.144 19.6875 365.832 17.8594 371.769 17.8594C378.019 17.8594 383.144 19.8594 387.144 23.8594C391.176 27.8281 393.191 32.8438 393.191 38.9062V63.2344C393.191 64.9844 391.598 65.8594 388.41 65.8594ZM419.985 65.8594C409.454 65.7969 404.188 61.4844 404.188 52.9219V23.1094H398.938C395.782 23.1094 394.204 22.2344 394.204 20.4844C394.204 18.7344 395.782 17.8594 398.938 17.8594H404.188V2.625C404.188 0.875 405.782 0 408.969 0C412.157 0 413.751 0.875 413.751 2.625V17.8594H421.626C424.813 17.8594 426.407 18.7344 426.407 20.4844C426.407 22.2344 424.813 23.1094 421.626 23.1094H413.751V52.9219C413.751 58.0469 415.844 60.6094 420.032 60.6094C420.907 60.6094 421.735 60.5312 422.516 60.375C423.329 60.1875 424.141 60.0938 424.954 60.0938C428.235 60.0938 429.876 61 429.876 62.8125C429.876 64.0312 428.563 64.875 425.938 65.3438C423.876 65.6875 421.891 65.8594 419.985 65.8594ZM456.594 65.8594C449.282 65.8594 443.188 63.6875 438.313 59.3438C433.469 55 431.047 49.1719 431.047 41.8594C431.047 34.5469 433.469 28.7188 438.313 24.375C443.188 20.0312 449.282 17.8594 456.594 17.8594C463.907 17.8594 469.985 20.0312 474.829 24.375C479.704 28.7188 482.141 34.5469 482.141 41.8594C482.141 49.1719 479.704 55 474.829 59.3438C469.985 63.6875 463.907 65.8594 456.594 65.8594ZM456.594 60.6562C461.813 60.6562 465.782 58.6875 468.501 54.75C471.251 50.7812 472.626 46.4844 472.626 41.8594C472.626 37.2031 471.251 32.9062 468.501 28.9688C465.782 25.0312 461.813 23.0625 456.594 23.0625C451.407 23.0625 447.438 25.0312 444.688 28.9688C441.938 32.9062 440.563 37.2031 440.563 41.8594C440.563 46.4844 441.938 50.7812 444.688 54.75C447.438 58.6875 451.407 60.6562 456.594 60.6562Z" fill="#C3D790"/>
</svg>
